<?xml version="1.0" encoding="iso-8859-1"?>
<!-- Generator: Adobe Illustrator 16.0.0, SVG Export Plug-In . SVG Version: 6.00 Build 0)  -->
<!DOCTYPE svg PUBLIC "-//W3C//DTD SVG 1.1//EN" "http://www.w3.org/Graphics/SVG/1.1/DTD/svg11.dtd">
<svg version="1.1" id="&#x56FE;&#x5C42;_1" xmlns="http://www.w3.org/2000/svg" xmlns:xlink="http://www.w3.org/1999/xlink" x="0px"
	 y="0px" width="78.605px" height="52.534px" viewBox="0 0 78.605 52.534" style="enable-background:new 0 0 78.605 52.534;"
	 xml:space="preserve">
<path style="fill:#4D4E50;" d="M72.813,0.22L5.966,0C2.754-0.011,0.144,2.582,0.133,5.792L0,46.483
	c-0.011,3.209,2.581,5.821,5.792,5.83l66.849,0.221c3.209,0.011,5.821-2.584,5.832-5.792l0.133-40.691
	C78.615,2.841,76.024,0.229,72.813,0.22z M10.658,31.925l21.782-0.023l0.001,1.642l-21.782,0.022L10.658,31.925z M10.667,39.696
	l-0.002-1.64l43.562-0.047l0.001,1.639L10.667,39.696z M53.915,28.231L53.894,7.874l16.255-0.019l0.021,20.357L53.915,28.231z"/>
</svg>
