<?xml version="1.0" encoding="iso-8859-1"?>
<!-- Generator: Adobe Illustrator 16.0.0, SVG Export Plug-In . SVG Version: 6.00 Build 0)  -->
<!DOCTYPE svg PUBLIC "-//W3C//DTD SVG 1.1//EN" "http://www.w3.org/Graphics/SVG/1.1/DTD/svg11.dtd">
<svg version="1.1" id="&#x56FE;&#x5C42;_1" xmlns="http://www.w3.org/2000/svg" xmlns:xlink="http://www.w3.org/1999/xlink" x="0px"
	 y="0px" width="72.227px" height="71.838px" viewBox="0 0 72.227 71.838" style="enable-background:new 0 0 72.227 71.838;"
	 xml:space="preserve">
<g>
	<g>
		<path style="fill:#4D4E50;" d="M70.188,69.799c-2.017,2.016-4.657,2.643-5.899,1.402l-2.323-2.323l7.22-7.384l2.406,2.404
			C72.832,65.141,72.203,67.782,70.188,69.799z"/>
		<path style="fill:#4D4E50;" d="M67.144,59.187L52.162,44.204c3.002-4.51,4.76-9.921,4.76-15.745C56.921,12.742,44.18,0,28.462,0
			C12.746,0-0.235,12.744,0.003,28.459C0.25,44.47,12.932,57.141,28.462,56.917c6.158-0.089,11.848-1.979,16.505-5.304l14.96,14.959
			L67.144,59.187z M48.472,28.847c0,11.05-8.959,20.009-20.01,20.009s-20.01-8.959-20.01-20.009c0-11.051,8.959-20.01,20.01-20.01
			S48.472,17.795,48.472,28.847z"/>
	</g>
	<g>
		<path style="fill:#4D4E50;" d="M28.601,47.323c-10.211,0-18.518-8.308-18.518-18.519c0-10.21,8.307-18.518,18.518-18.518
			s18.52,8.308,18.52,18.518C47.121,39.015,38.812,47.323,28.601,47.323z M28.601,11.308c-9.648,0-17.496,7.85-17.496,17.497
			c0,9.647,7.848,17.497,17.496,17.497c9.646,0,17.496-7.85,17.496-17.497C46.097,19.157,38.248,11.308,28.601,11.308z"/>
	</g>
</g>
</svg>
